<?xml version="1.0" encoding="UTF-8"?>
<svg width="1440px" height="303px" viewBox="0 0 1440 303" version="1.1" xmlns="http://www.w3.org/2000/svg" xmlns:xlink="http://www.w3.org/1999/xlink">
    <!-- Generator: Sketch 59.1 (86144) - https://sketch.com -->
    <title>Intro Copy</title>
    <desc>Created with Sketch.</desc>
    <g id="Intro-Copy" stroke="none" stroke-width="1" fill="none" fill-rule="evenodd">
        <rect fill="#FFFAF0" x="0" y="0" width="1440" height="303"></rect>
        <g id="Group-2" transform="translate(420.000000, 58.000000)">
            <text id="Legends-Explaination" font-family="GTWalsheimProTrial-Medium, GT Walsheim Pro Trial" font-size="12" font-weight="400" fill="#000000">
                <tspan x="0" y="12">Legends Explaination</tspan>
                <tspan x="0" y="27"></tspan>
            </text>
            <g id="Group" transform="translate(5.000000, 32.000000)">
                <text id="Larger-MOE-Low-Certa" font-family="Helvetica" font-size="7" font-weight="normal" fill="#000000">
                    <tspan x="0" y="127">Larger MOE</tspan>
                    <tspan x="0" y="135">Low Certainty</tspan>
                </text>
                <g id="Group-14" transform="translate(318.000000, 0.000000)">
                    <text id="2~3%" font-family="Helvetica" font-size="7" font-weight="normal" fill="#000000">
                        <tspan x="21.4509277" y="86">2~3%</tspan>
                    </text>
                    <g id="Group-8" stroke="#000000" stroke-width="3">
                        <line x1="-5.47478729e-14" y1="30.5" x2="60" y2="30.5" id="Line-6-Copy-34" transform="translate(30.000000, 30.500000) rotate(160.000000) translate(-30.000000, -30.500000) "></line>
                        <line x1="1.30104261e-16" y1="30.5" x2="60" y2="30.5" id="Line-6-Copy-35" transform="translate(30.000000, 30.500000) rotate(40.000000) translate(-30.000000, -30.500000) "></line>
                        <line x1="1.30104261e-16" y1="30.5" x2="60" y2="30.5" id="Line-6-Copy-35" transform="translate(30.000000, 30.500000) rotate(20.000000) translate(-30.000000, -30.500000) "></line>
                        <line x1="1.00128239e-13" y1="30.5" x2="60" y2="30.5" id="Line-6-Copy-36" transform="translate(30.000000, 30.500000) rotate(60.000000) translate(-30.000000, -30.500000) "></line>
                        <line x1="1.64451786e-14" y1="30.5" x2="60" y2="30.5" id="Line-6-Copy-37" transform="translate(30.000000, 30.500000) rotate(100.000000) translate(-30.000000, -30.500000) "></line>
                        <line x1="9.97119054e-14" y1="30.5" x2="60" y2="30.5" id="Line-6-Copy-38" transform="translate(30.000000, 30.500000) rotate(120.000000) translate(-30.000000, -30.500000) "></line>
                        <line x1="9.97119054e-14" y1="30.5" x2="60" y2="30.5" id="Line-6-Copy-39" transform="translate(30.000000, 30.500000) rotate(140.000000) translate(-30.000000, -30.500000) "></line>
                        <line x1="0" y1="30.5" x2="60" y2="30.5" id="Line-6-Copy-192" transform="translate(30.000000, 30.500000) rotate(80.000000) translate(-30.000000, -30.500000) "></line>
                        <line x1="0" y1="30.5" x2="60" y2="30.5" id="Line-6-Copy-191"></line>
                    </g>
                </g>
                <g id="Group-17" transform="translate(0.000000, 5.000000)">
                    <text id="&gt;5%" font-family="Helvetica" font-size="7" font-weight="normal" fill="#000000">
                        <tspan x="23" y="79">&gt;5%</tspan>
                    </text>
                    <g id="Group-4" stroke="#000000" stroke-width="3">
                        <line x1="0" y1="26.5" x2="60" y2="26.5" id="Line-6-Copy-8" transform="translate(30.000000, 26.500000) rotate(120.000000) translate(-30.000000, -26.500000) "></line>
                        <line x1="0" y1="26.5" x2="60" y2="26.5" id="Line-6-Copy-8" transform="translate(30.000000, 26.500000) rotate(60.000000) translate(-30.000000, -26.500000) "></line>
                        <line x1="0" y1="26.5" x2="60" y2="26.5" id="Line-6-Copy-7"></line>
                    </g>
                </g>
                <g id="Group-16" transform="translate(106.000000, 1.000000)">
                    <text id="4~5%" font-family="Helvetica" font-size="7" font-weight="normal" fill="#000000">
                        <tspan x="21" y="83">4~5%</tspan>
                    </text>
                    <g id="Group-15" stroke="#000000" stroke-width="3">
                        <line x1="0" y1="30.5" x2="60" y2="30.5" id="Line-6-Copy-10" transform="translate(30.000000, 30.500000) rotate(45.000000) translate(-30.000000, -30.500000) "></line>
                        <line x1="0" y1="30.5" x2="60" y2="30.5" id="Line-6-Copy-11" transform="translate(30.000000, 30.500000) rotate(135.000000) translate(-30.000000, -30.500000) "></line>
                        <line x1="0" y1="30.5" x2="60" y2="30.5" id="Line-6-Copy-9"></line>
                        <line x1="0" y1="30.5" x2="60" y2="30.5" id="Line-6-Copy-11" transform="translate(30.000000, 30.500000) rotate(90.000000) translate(-30.000000, -30.500000) "></line>
                    </g>
                </g>
                <g id="Group-5" transform="translate(424.000000, 1.000000)">
                    <text id="1~2%" font-family="Helvetica" font-size="7" font-weight="normal" fill="#000000">
                        <tspan x="21" y="86">1~2%</tspan>
                    </text>
                    <line x1="-4.57966998e-15" y1="30.5" x2="60" y2="30.5" id="Line-6-Copy-57" stroke="#000000" stroke-width="3" transform="translate(30.000000, 30.500000) rotate(26.000000) translate(-30.000000, -30.500000) "></line>
                    <line x1="9.36750677e-14" y1="30.5" x2="60" y2="30.5" id="Line-6-Copy-58" stroke="#000000" stroke-width="3" transform="translate(30.000000, 30.500000) rotate(52.000000) translate(-30.000000, -30.500000) "></line>
                    <line x1="-1.0717989e-13" y1="30.5" x2="60" y2="30.5" id="Line-6-Copy-59" stroke="#000000" stroke-width="3" transform="translate(30.000000, 30.500000) rotate(13.000000) translate(-30.000000, -30.500000) "></line>
                    <line x1="9.54444856e-14" y1="30.5" x2="60" y2="30.5" id="Line-6-Copy-60" stroke="#000000" stroke-width="3" transform="translate(30.000000, 30.500000) rotate(39.000000) translate(-30.000000, -30.500000) "></line>
                    <line x1="3.6247047e-14" y1="30.5" x2="60" y2="30.5" id="Line-6-Copy-61" stroke="#000000" stroke-width="3" transform="translate(30.000000, 30.500000) rotate(104.000000) translate(-30.000000, -30.500000) "></line>
                    <line x1="3.6247047e-14" y1="30.5" x2="60" y2="30.5" id="Line-6-Copy-61" stroke="#000000" stroke-width="3" transform="translate(30.000000, 30.500000) rotate(117.000000) translate(-30.000000, -30.500000) "></line>
                    <line x1="3.6247047e-14" y1="30.5" x2="60" y2="30.5" id="Line-6-Copy-61" stroke="#000000" stroke-width="3" transform="translate(30.000000, 30.500000) rotate(130.000000) translate(-30.000000, -30.500000) "></line>
                    <line x1="-1.93412994e-13" y1="30.5" x2="60" y2="30.5" id="Line-6-Copy-61" stroke="#000000" stroke-width="3" transform="translate(30.000000, 30.500000) rotate(91.000000) translate(-30.000000, -30.500000) "></line>
                    <line x1="1.06165077e-13" y1="30.5" x2="60" y2="30.5" id="Line-6-Copy-62" stroke="#000000" stroke-width="3" transform="translate(30.000000, 30.500000) rotate(143.000000) translate(-30.000000, -30.500000) "></line>
                    <line x1="1.06165077e-13" y1="30.5" x2="60" y2="30.5" id="Line-6-Copy-62" stroke="#000000" stroke-width="3" transform="translate(30.000000, 30.500000) rotate(156.000000) translate(-30.000000, -30.500000) "></line>
                    <line x1="1.06165077e-13" y1="30.5" x2="60" y2="30.5" id="Line-6-Copy-62" stroke="#000000" stroke-width="3" transform="translate(30.000000, 30.500000) rotate(169.000000) translate(-30.000000, -30.500000) "></line>
                    <line x1="0" y1="30.5" x2="60" y2="30.5" id="Line-6-Copy-64" stroke="#000000" stroke-width="3" transform="translate(30.000000, 30.500000) rotate(78.000000) translate(-30.000000, -30.500000) "></line>
                    <line x1="-8.95117314e-15" y1="30.5" x2="60" y2="30.5" id="Line-6-Copy-65" stroke="#000000" stroke-width="3" transform="translate(30.000000, 30.500000) rotate(65.000000) translate(-30.000000, -30.500000) "></line>
                    <line x1="0" y1="30.5" x2="60" y2="30.5" id="Line-6-Copy-63" stroke="#000000" stroke-width="3"></line>
                </g>
                <g id="Group-7" transform="translate(212.000000, 1.000000)">
                    <text id="3~4%" font-family="Helvetica" font-size="7" font-weight="normal" fill="#000000">
                        <tspan x="20.9509277" y="83">3~4%</tspan>
                    </text>
                    <line x1="-4.57966998e-15" y1="30.5" x2="60" y2="30.5" id="Line-6-Copy-16" stroke="#000000" stroke-width="3" transform="translate(30.000000, 30.500000) rotate(30.000000) translate(-30.000000, -30.500000) "></line>
                    <line x1="2.00256478e-13" y1="30.5" x2="60" y2="30.5" id="Line-6-Copy-17" stroke="#000000" stroke-width="3" transform="translate(30.000000, 30.500000) rotate(60.000000) translate(-30.000000, -30.500000) "></line>
                    <line x1="3.6247047e-14" y1="30.5" x2="60" y2="30.5" id="Line-6-Copy-20" stroke="#000000" stroke-width="3" transform="translate(30.000000, 30.500000) rotate(120.000000) translate(-30.000000, -30.500000) "></line>
                    <line x1="1.19487753e-13" y1="30.5" x2="60" y2="30.5" id="Line-6-Copy-20" stroke="#000000" stroke-width="3" transform="translate(30.000000, 30.500000) rotate(150.000000) translate(-30.000000, -30.500000) "></line>
                    <line x1="0" y1="30.5" x2="60" y2="30.5" id="Line-6-Copy-18" stroke="#000000" stroke-width="3"></line>
                    <line x1="0" y1="30.5" x2="60" y2="30.5" id="Line-6-Copy-19" stroke="#000000" stroke-width="3" transform="translate(30.000000, 30.500000) rotate(90.000000) translate(-30.000000, -30.500000) "></line>
                </g>
                <g id="Group-6" transform="translate(530.000000, 1.000000)">
                    <text id="&lt;1%" font-family="Helvetica" font-size="7" font-weight="normal" fill="#000000">
                        <tspan x="20" y="86">&lt;1%</tspan>
                    </text>
                    <line x1="-1.1116108e-13" y1="30.5" x2="60" y2="30.5" id="Line-6-Copy-66" stroke="#000000" stroke-width="3" transform="translate(30.000000, 30.500000) rotate(30.000000) translate(-30.000000, -30.500000) "></line>
                    <line x1="2.00256478e-13" y1="30.5" x2="60" y2="30.5" id="Line-6-Copy-67" stroke="#000000" stroke-width="3" transform="translate(30.000000, 30.500000) rotate(50.000000) translate(-30.000000, -30.500000) "></line>
                    <line x1="-5.98479599e-16" y1="30.5" x2="60" y2="30.5" id="Line-6-Copy-68" stroke="#000000" stroke-width="3" transform="translate(30.000000, 30.500000) rotate(10.000000) translate(-30.000000, -30.500000) "></line>
                    <line x1="-5.98479599e-16" y1="30.5" x2="60" y2="30.5" id="Line-6-Copy-68" stroke="#000000" stroke-width="3" transform="translate(30.000000, 30.500000) rotate(20.000000) translate(-30.000000, -30.500000) "></line>
                    <line x1="-1.11369247e-14" y1="30.5" x2="60" y2="30.5" id="Line-6-Copy-69" stroke="#000000" stroke-width="3" transform="translate(30.000000, 30.500000) rotate(40.000000) translate(-30.000000, -30.500000) "></line>
                    <line x1="3.6247047e-14" y1="30.5" x2="60" y2="30.5" id="Line-6-Copy-70" stroke="#000000" stroke-width="3" transform="translate(30.000000, 30.500000) rotate(110.000000) translate(-30.000000, -30.500000) "></line>
                    <line x1="-1.93412994e-13" y1="30.5" x2="60" y2="30.5" id="Line-6-Copy-71" stroke="#000000" stroke-width="3" transform="translate(30.000000, 30.500000) rotate(100.000000) translate(-30.000000, -30.500000) "></line>
                    <line x1="1.32810429e-13" y1="30.5" x2="60" y2="30.5" id="Line-6-Copy-72" stroke="#000000" stroke-width="3" transform="translate(30.000000, 30.500000) rotate(130.000000) translate(-30.000000, -30.500000) "></line>
                    <line x1="1.32810429e-13" y1="30.5" x2="60" y2="30.5" id="Line-6-Copy-72" stroke="#000000" stroke-width="3" transform="translate(30.000000, 30.500000) rotate(150.000000) translate(-30.000000, -30.500000) "></line>
                    <line x1="1.32810429e-13" y1="30.5" x2="60" y2="30.5" id="Line-6-Copy-72" stroke="#000000" stroke-width="3" transform="translate(30.000000, 30.500000) rotate(170.000000) translate(-30.000000, -30.500000) "></line>
                    <line x1="1.32810429e-13" y1="30.5" x2="60" y2="30.5" id="Line-6-Copy-72" stroke="#000000" stroke-width="3" transform="translate(30.000000, 30.500000) rotate(160.000000) translate(-30.000000, -30.500000) "></line>
                    <line x1="1.32810429e-13" y1="30.5" x2="60" y2="30.5" id="Line-6-Copy-72" stroke="#000000" stroke-width="3" transform="translate(30.000000, 30.500000) rotate(140.000000) translate(-30.000000, -30.500000) "></line>
                    <line x1="-7.71258057e-14" y1="30.5" x2="60" y2="30.5" id="Line-6-Copy-72" stroke="#000000" stroke-width="3" transform="translate(30.000000, 30.500000) rotate(120.000000) translate(-30.000000, -30.500000) "></line>
                    <line x1="-8.95117314e-15" y1="30.5" x2="60" y2="30.5" id="Line-6-Copy-75" stroke="#000000" stroke-width="3" transform="translate(30.000000, 30.500000) rotate(60.000000) translate(-30.000000, -30.500000) "></line>
                    <line x1="0" y1="30.5" x2="60" y2="30.5" id="Line-6-Copy-74" stroke="#000000" stroke-width="3" transform="translate(30.000000, 30.500000) rotate(80.000000) translate(-30.000000, -30.500000) "></line>
                    <line x1="0" y1="30.5" x2="60" y2="30.5" id="Line-6-Copy-74" stroke="#000000" stroke-width="3" transform="translate(30.000000, 30.500000) rotate(70.000000) translate(-30.000000, -30.500000) "></line>
                    <line x1="0" y1="30.5" x2="60" y2="30.5" id="Line-6-Copy-73" stroke="#000000" stroke-width="3"></line>
                    <line x1="0" y1="30.5" x2="60" y2="30.5" id="Line-6-Copy-74" stroke="#000000" stroke-width="3" transform="translate(30.000000, 30.500000) rotate(90.000000) translate(-30.000000, -30.500000) "></line>
                </g>
                <text id="Smaller-MOE-Higher-C" font-family="Helvetica" font-size="7" font-weight="normal" fill="#000000">
                    <tspan x="535" y="127">Smaller MOE</tspan>
                    <tspan x="535" y="135">Higher Certainty</tspan>
                </text>
                <path id="Line-2" d="M560.5,108 C562.985281,108 565,110.014719 565,112.5 C565,114.985281 562.985281,117 560.5,117 C558.183966,117 556.276586,115.250342 556.027543,113.000707 L25.9724574,113.000707 C25.7234136,115.250342 23.8160341,117 21.5,117 C19.0147186,117 17,114.985281 17,112.5 C17,110.014719 19.0147186,108 21.5,108 C23.8163788,108 25.7239814,109.750179 25.9725684,112.000297 L556.027432,112.000297 C556.276019,109.750179 558.183621,108 560.5,108 Z M21.5,109 C19.5670034,109 18,110.567003 18,112.5 C18,114.432997 19.5670034,116 21.5,116 C23.4329966,116 25,114.432997 25,112.5 C25,110.567003 23.4329966,109 21.5,109 Z M560.5,109 C558.567003,109 557,110.567003 557,112.5 C557,114.432997 558.567003,116 560.5,116 C562.432997,116 564,114.432997 564,112.5 C564,110.567003 562.432997,109 560.5,109 Z" fill="#000000" fill-rule="nonzero"></path>
            </g>
        </g>
    </g>
</svg>